<?xml version="1.0" standalone="no"?>
<!DOCTYPE svg PUBLIC "-//W3C//DTD SVG 20010904//EN"
 "http://www.w3.org/TR/2001/REC-SVG-20010904/DTD/svg10.dtd">
<svg version="1.0" xmlns="http://www.w3.org/2000/svg"
 width="1430.000000pt" height="595.000000pt" viewBox="0 0 1430.000000 595.000000"
 preserveAspectRatio="xMidYMid meet">

<g transform="translate(0.000000,595.000000) scale(0.100000,-0.100000)"
fill="#000000" stroke="none">
<path d="M11875 5183 c-176 -39 -270 -76 -370 -147 -111 -80 -194 -189 -245
-326 -23 -59 -25 -80 -25 -220 0 -157 9 -207 57 -310 18 -37 90 -164 97 -170
4 -3 23 -27 43 -55 35 -49 193 -209 272 -276 41 -35 96 -79 226 -177 87 -66
223 -173 230 -182 3 -3 37 -30 75 -60 106 -81 268 -224 298 -262 15 -18 48
-60 74 -93 112 -140 154 -214 199 -351 27 -82 29 -100 28 -229 -1 -130 -3
-146 -32 -228 -90 -253 -249 -391 -557 -483 -48 -15 -95 -18 -230 -18 -200 0
-255 13 -420 97 -84 42 -201 147 -263 234 -35 51 -102 182 -102 201 0 10 -4
22 -10 28 -13 13 -48 147 -56 217 -4 38 -11 57 -20 57 -11 0 -14 -69 -16 -372
-4 -443 -2 -478 18 -478 9 0 14 11 14 36 0 28 8 44 35 71 34 34 39 35 84 30
30 -4 95 -28 164 -61 64 -31 119 -56 122 -56 4 0 21 -6 38 -14 71 -32 179 -56
285 -64 127 -10 312 1 386 23 27 8 58 15 69 15 40 0 220 81 310 139 51 33 113
82 139 108 42 43 138 176 138 190 0 4 6 14 13 22 14 18 45 95 72 181 21 67 31
300 17 380 -29 152 -95 307 -198 465 -80 122 -282 313 -514 488 -41 31 -102
77 -135 102 -33 26 -121 93 -195 148 -249 187 -390 321 -485 464 -30 45 -55
85 -55 89 0 4 -8 25 -19 48 -54 119 -63 216 -31 340 63 239 288 386 592 386
226 0 436 -95 586 -263 92 -105 153 -240 199 -441 10 -44 24 -81 31 -84 9 -3
12 79 12 387 0 235 -4 392 -9 396 -6 3 -13 -10 -16 -29 -4 -19 -22 -51 -41
-71 -32 -36 -36 -37 -86 -33 -41 3 -74 17 -148 59 -89 52 -111 63 -200 102
-71 30 -226 57 -327 56 -54 -1 -107 -3 -118 -6z"/>
<path d="M940 5140 c0 -6 16 -25 36 -42 43 -38 73 -84 100 -153 19 -49 19 -89
19 -1585 0 -1472 -1 -1537 -19 -1590 -26 -78 -71 -145 -114 -171 -34 -20 -35
-22 -17 -30 11 -4 236 -8 500 -8 468 0 483 0 595 24 63 13 138 31 165 40 70
24 214 92 252 121 17 13 35 24 39 24 11 0 93 68 173 145 113 108 223 259 301
415 66 130 66 130 94 215 15 44 31 89 35 100 14 34 43 157 51 215 5 30 13 75
18 100 22 95 34 402 23 577 -11 168 -21 231 -66 418 -24 99 -30 120 -67 225
-34 96 -117 270 -144 301 -8 8 -14 18 -14 22 0 11 -63 101 -121 173 -142 175
-328 312 -534 393 -62 24 -153 51 -175 51 -14 0 -57 7 -95 15 -56 12 -165 15
-552 15 -325 0 -483 -3 -483 -10z m1044 -80 c197 -48 339 -130 484 -280 53
-55 182 -228 182 -244 0 -3 13 -27 29 -55 59 -99 122 -261 166 -426 30 -111
55 -227 55 -258 0 -18 7 -68 15 -112 20 -111 20 -499 0 -648 -20 -151 -54
-343 -70 -392 -7 -22 -23 -74 -35 -115 -28 -92 -37 -113 -85 -215 -168 -351
-373 -552 -660 -647 l-100 -33 -305 0 -305 0 -3 1710 c-1 941 0 1716 3 1723 3
9 68 12 276 12 236 0 282 -3 353 -20z"/>
<path d="M3546 5128 c-8 -13 -19 -65 -25 -116 -5 -51 -13 -96 -16 -102 -3 -5
-12 -60 -20 -122 -8 -62 -18 -125 -21 -140 -4 -18 -2 -28 5 -28 6 0 11 7 11
15 0 8 9 19 20 25 11 6 20 16 20 22 0 24 98 156 166 223 78 77 151 125 237
155 54 19 79 20 550 18 l492 -3 3 -829 c1 -604 -1 -832 -9 -842 -9 -11 -71
-14 -316 -14 -333 0 -421 10 -501 56 -89 52 -151 142 -162 234 -7 61 -23 53
-33 -17 -10 -72 -4 -659 6 -670 11 -10 27 17 27 45 0 82 94 203 192 247 77 34
188 42 533 35 l260 -5 0 -840 0 -840 -535 0 c-527 0 -536 0 -595 22 -147 54
-289 156 -400 286 -27 32 -60 69 -72 82 -13 12 -23 30 -23 39 0 9 -4 16 -10
16 -10 0 -15 -17 -10 -35 2 -5 11 -39 21 -75 9 -36 22 -78 27 -95 6 -16 20
-64 32 -105 37 -126 52 -174 60 -190 6 -13 124 -15 956 -17 658 -2 954 1 964
8 12 9 12 12 2 16 -37 14 -86 73 -120 142 l-37 76 0 1550 0 1550 37 76 c22 45
54 91 78 113 22 20 40 40 40 46 0 7 -308 10 -910 10 l-910 0 -14 -22z"/>
<path d="M5724 5138 c-4 -7 -1 -14 7 -16 21 -7 84 -77 101 -114 58 -119 53 24
53 -1658 l0 -1535 -23 -50 c-53 -114 -80 -150 -119 -166 -13 -5 -23 -13 -23
-19 0 -5 10 -12 23 -15 12 -3 451 -4 976 -3 836 3 955 5 961 18 8 16 31 100
50 185 6 28 20 91 32 140 11 50 21 105 22 124 1 38 -19 53 -29 22 -3 -12 -12
-27 -18 -34 -7 -6 -24 -30 -39 -52 -69 -100 -203 -216 -313 -273 -121 -61 -69
-57 -677 -60 -549 -3 -557 -3 -568 17 -7 15 -9 487 -7 1608 3 1551 3 1589 23
1648 29 88 57 137 108 185 25 24 43 47 40 52 -9 14 -571 10 -580 -4z"/>
<path d="M6978 5144 c-3 -3 16 -27 43 -54 58 -58 91 -127 113 -232 14 -68 16
-207 16 -1132 0 -1148 1 -1130 -57 -1258 -15 -35 -45 -75 -74 -103 -32 -30
-44 -47 -36 -52 16 -10 548 -9 564 0 8 5 -3 21 -33 49 -27 25 -58 70 -82 117
l-37 76 0 1175 0 1175 39 78 c36 71 84 128 117 139 7 2 9 10 5 16 -5 9 -82 12
-290 12 -155 0 -285 -3 -288 -6z"/>
<path d="M7986 5142 c-3 -5 14 -25 38 -44 28 -24 56 -62 82 -115 l39 -78 0
-1550 c0 -1397 -2 -1553 -16 -1580 -9 -16 -26 -52 -39 -79 -13 -26 -43 -64
-67 -84 -30 -25 -39 -38 -30 -44 19 -12 559 -10 577 3 13 9 13 11 1 16 -33 13
-94 80 -116 127 -55 118 -55 118 -55 855 0 662 1 681 19 691 11 6 87 10 176
10 188 0 195 -3 280 -101 33 -39 71 -82 85 -97 14 -15 44 -49 65 -77 34 -43
151 -181 165 -195 3 -3 39 -43 80 -90 41 -47 115 -130 164 -185 49 -55 103
-116 120 -135 17 -19 76 -85 131 -146 85 -93 205 -229 410 -463 22 -25 75 -85
118 -133 l78 -88 247 1 c136 0 256 4 267 8 19 8 19 8 -2 19 -12 7 -30 12 -40
12 -21 1 -163 71 -243 120 -162 100 -185 125 -848 880 -152 174 -297 340 -322
370 -24 30 -88 105 -141 165 -53 61 -101 120 -108 133 -13 25 -13 26 102 61
165 51 332 161 446 292 118 136 186 290 212 479 32 231 -43 489 -195 675 -122
149 -299 264 -490 317 -199 55 -235 58 -726 58 -252 0 -461 -4 -464 -8z m1060
-103 c134 -46 226 -103 310 -193 83 -88 121 -142 153 -216 13 -30 29 -66 36
-80 7 -14 16 -43 19 -65 4 -22 14 -59 22 -83 9 -29 14 -89 14 -187 0 -148 -19
-258 -65 -370 -120 -297 -348 -472 -655 -505 -122 -13 -421 -13 -454 0 l-26
10 0 858 c0 472 3 862 7 866 4 4 127 6 273 4 l265 -4 101 -35z"/>
<path d="M10190 5140 c0 -5 20 -28 45 -51 24 -22 54 -62 65 -87 12 -26 27 -58
33 -71 9 -18 12 -330 12 -1205 l0 -1181 -33 -67 c-18 -37 -53 -87 -78 -112
-41 -40 -44 -45 -27 -53 17 -9 562 -7 570 1 2 2 -18 26 -46 54 -55 55 -84 107
-112 202 -18 62 -19 111 -19 1155 0 1065 0 1092 20 1164 11 40 29 89 39 110
26 50 89 121 108 121 8 0 13 6 11 13 -6 15 -588 23 -588 7z"/>
<path d="M9821 1053 c-38 -8 -95 -49 -116 -85 -15 -25 -20 -50 -20 -103 1 -79
14 -107 72 -151 48 -37 149 -39 205 -5 70 42 99 122 78 211 -9 39 -22 59 -57
90 -25 22 -54 40 -63 40 -10 0 -30 2 -46 4 -16 2 -40 2 -53 -1z m126 -60 c26
-17 63 -89 63 -124 0 -43 -42 -112 -80 -132 -77 -40 -174 -1 -201 81 -24 74
19 172 84 191 39 12 103 4 134 -16z"/>
<path d="M10335 1055 c-5 -2 -22 -6 -37 -9 -35 -8 -84 -50 -105 -90 -24 -46
-21 -134 6 -182 34 -61 83 -88 161 -88 52 0 72 5 101 24 59 39 79 79 79 158 0
61 -4 74 -30 110 -16 23 -42 48 -57 55 -29 15 -101 28 -118 22z m124 -80 c29
-29 35 -42 39 -91 5 -65 -11 -106 -56 -139 -32 -23 -116 -27 -155 -6 -82 44
-90 179 -15 248 47 44 136 38 187 -12z"/>
<path d="M10953 1053 c-41 -8 -73 -48 -73 -92 0 -22 3 -47 6 -56 6 -16 73 -55
95 -55 6 0 24 -9 40 -21 64 -45 21 -118 -61 -104 -22 4 -40 11 -40 16 0 5 -9
9 -21 9 -15 0 -20 -5 -17 -22 2 -17 14 -27 46 -37 106 -33 193 36 160 129 -8
26 -25 38 -87 68 -64 31 -76 41 -79 64 -7 55 65 88 116 52 34 -23 61 8 30 34
-16 12 -85 21 -115 15z"/>
<path d="M12743 1051 c-44 -11 -77 -34 -109 -77 -24 -31 -28 -46 -28 -103 -1
-118 64 -185 179 -185 73 0 122 25 156 81 32 51 31 155 -1 204 -43 66 -123 98
-197 80z m123 -57 c52 -35 72 -150 35 -210 -21 -34 -75 -64 -116 -64 -37 0
-93 28 -112 57 -40 60 -31 148 19 200 43 45 120 52 174 17z"/>
<path d="M8262 1033 c2 -14 15 -19 55 -21 l52 -3 3 -157 c3 -139 5 -157 20
-160 16 -3 18 11 20 155 l3 158 58 3 c49 3 57 6 57 22 0 19 -8 20 -136 20
-124 0 -135 -2 -132 -17z"/>
<path d="M8650 880 c-40 -93 -72 -173 -72 -177 1 -4 10 -9 21 -11 14 -2 23 7
36 43 l18 46 90 -3 c68 -2 92 -7 97 -18 4 -8 13 -27 21 -42 11 -26 49 -40 49
-19 0 9 -85 209 -131 309 -34 75 -48 62 -129 -128z m110 75 c5 -14 19 -45 30
-69 11 -25 20 -50 20 -55 0 -7 -26 -11 -65 -11 -45 0 -65 4 -65 13 0 19 54
147 63 147 4 0 12 -11 17 -25z"/>
<path d="M8952 1033 c2 -14 16 -19 58 -23 l55 -5 3 -158 c2 -144 4 -158 20
-155 15 3 17 21 20 160 l3 157 57 3 c43 2 57 7 57 18 0 12 -23 15 -138 18
-128 2 -138 1 -135 -15z"/>
<path d="M9305 1040 c-12 -20 7 -30 60 -30 l54 0 3 -157 c3 -141 5 -158 21
-161 16 -3 17 10 17 157 l0 161 60 0 c53 0 60 2 60 20 0 19 -7 20 -134 20 -79
0 -137 -4 -141 -10z"/>
<path d="M11185 1040 c-12 -20 7 -30 60 -30 l54 0 3 -157 c3 -140 5 -158 20
-161 16 -3 18 11 20 155 l3 158 58 3 c49 3 57 6 57 22 0 19 -8 20 -134 20 -79
0 -137 -4 -141 -10z"/>
<path d="M11574 1035 c-3 -8 -4 -70 -2 -137 4 -141 17 -176 72 -202 68 -32
133 -16 173 43 21 31 23 45 23 172 0 132 -1 139 -20 139 -19 0 -20 -7 -20
-125 0 -164 -19 -205 -98 -205 -70 0 -91 52 -92 228 0 85 -3 102 -15 102 -9 0
-18 -7 -21 -15z"/>
<path d="M11984 1037 c-2 -7 -3 -87 -2 -177 l3 -165 85 -3 c79 -3 88 -1 131
27 125 78 113 253 -21 310 -57 25 -187 30 -196 8z m186 -48 c47 -27 70 -66 70
-119 0 -88 -64 -144 -160 -138 l-55 3 -3 114 c-5 158 -4 161 59 161 34 0 64
-7 89 -21z"/>
<path d="M12430 870 c0 -167 1 -181 18 -178 15 3 17 20 17 178 0 158 -2 175
-17 178 -17 3 -18 -11 -18 -178z"/>
</g>
</svg>
