<?xml version="1.0" standalone="no"?>
<!DOCTYPE svg PUBLIC "-//W3C//DTD SVG 20010904//EN"
 "http://www.w3.org/TR/2001/REC-SVG-20010904/DTD/svg10.dtd">
<svg version="1.0" xmlns="http://www.w3.org/2000/svg"
 width="1060.000000pt" height="1345.000000pt" viewBox="0 0 1060.000000 1345.000000"
 preserveAspectRatio="xMidYMid meet">

<g transform="translate(0.000000,1345.000000) scale(0.100000,-0.100000)"
fill="#000000" stroke="none">
<path d="M1792 11071 c2 -874 6 -1592 9 -1596 4 -3 277 -6 608 -5 330 0 612
-2 626 -6 l25 -6 2 -632 3 -631 2245 0 2245 0 3 304 c2 216 -1 308 -9 317 -10
12 -318 14 -1930 14 l-1919 0 0 315 c0 173 1 316 3 317 1 1 295 5 652 8 l650
5 3 290 c1 160 0 300 -3 312 l-5 23 -648 2 -647 3 0 320 0 320 1925 5 1925 5
3 304 c2 216 -1 308 -9 317 -17 21 -4461 21 -4478 1 -8 -10 -12 -199 -13 -643
l-3 -629 -290 -3 c-159 -1 -300 0 -313 3 l-22 5 2 953 3 952 2480 0 c2375 0
2483 -1 2545 -18 233 -66 424 -195 553 -376 206 -285 239 -653 88 -966 -57
-117 -97 -175 -183 -263 -121 -123 -275 -213 -448 -260 l-95 -27 -872 -3 -873
-3 0 -314 0 -315 883 0 c706 0 899 3 968 14 654 106 1172 595 1316 1241 30
136 42 406 24 536 -52 368 -216 698 -473 945 -225 218 -471 348 -808 426 l-95
22 -2828 3 -2828 3 3 -1589z"/>
<path d="M8207 9433 c-4 -3 -7 -143 -7 -310 l0 -303 315 0 315 0 -2 308 -3
307 -306 3 c-168 1 -308 -1 -312 -5z"/>
<path d="M1797 8824 c-8 -8 -9 -1877 -1 -1898 6 -15 247 -16 2885 -16 l2879 0
-2 313 -3 312 -2560 5 -2560 5 -5 640 -5 640 -311 3 c-171 1 -313 -1 -317 -4z"/>
<path d="M8198 7243 l-3 -988 -595 -6 c-498 -5 -606 -8 -660 -22 -302 -74
-522 -245 -658 -512 -77 -152 -108 -300 -99 -478 6 -134 33 -242 86 -354 130
-272 345 -451 636 -530 l100 -27 595 -6 595 -5 3 -314 c2 -223 -1 -318 -9
-327 -16 -19 -2538 -21 -2557 -2 -9 9 -12 175 -12 685 l0 673 -315 0 -315 0 0
-1000 0 -1000 1920 0 1920 0 0 964 0 964 -877 4 c-992 5 -928 0 -1023 85 -28
25 -63 69 -78 97 -22 44 -26 64 -27 141 0 79 3 96 27 141 36 68 102 130 168
157 l55 22 878 3 877 3 0 1309 0 1310 -315 0 -315 0 -2 -987z"/>
<path d="M1802 6242 c-9 -7 -12 -77 -10 -318 l3 -309 900 -5 900 -5 52 -24
c62 -28 136 -103 166 -169 34 -73 31 -189 -6 -264 -34 -68 -108 -139 -175
-165 -44 -17 -101 -18 -938 -21 l-892 -3 -6 -22 c-7 -28 -7 -1853 1 -1872 4
-13 53 -15 319 -15 l314 0 0 635 0 635 209 0 209 0 21 -84 c118 -474 467 -879
921 -1071 173 -73 405 -125 558 -125 l62 0 0 315 0 314 -32 5 c-18 3 -58 7
-88 10 -258 25 -520 188 -673 418 -56 83 -114 205 -103 215 3 3 43 9 89 13
395 36 726 314 839 706 20 69 23 100 22 254 0 161 -2 182 -27 263 -50 161
-117 277 -231 396 -114 118 -222 188 -373 241 -165 59 -191 60 -1148 60 -478
0 -876 -4 -883 -8z"/>
<path d="M6903 1846 c-107 -35 -194 -111 -246 -216 -30 -61 -32 -71 -32 -175
0 -105 2 -113 34 -177 101 -201 337 -285 539 -191 74 35 160 121 198 198 27
55 29 69 29 170 0 99 -3 116 -27 168 -37 79 -117 160 -196 199 -58 29 -77 33
-161 35 -61 2 -111 -2 -138 -11z m209 -126 c53 -15 117 -67 152 -123 22 -36
30 -62 34 -117 8 -123 -43 -216 -150 -269 -86 -43 -161 -43 -247 0 -109 54
-158 143 -149 271 13 177 180 287 360 238z"/>
<path d="M8285 1847 c-135 -45 -236 -152 -271 -287 -66 -260 128 -512 394
-511 157 0 302 94 370 239 24 51 27 69 27 167 0 102 -2 115 -31 175 -40 85
-104 149 -189 191 -61 30 -79 34 -164 36 -60 2 -111 -2 -136 -10z m244 -141
c76 -40 131 -113 151 -200 23 -103 -28 -218 -127 -283 -46 -31 -63 -37 -127
-41 -63 -4 -81 -1 -127 20 -102 47 -159 129 -167 239 -4 56 -1 75 20 120 14
30 37 68 52 86 68 81 226 110 325 59z"/>
<path d="M1812 1783 l3 -68 85 -2 c47 0 93 -2 103 -2 16 -1 17 -23 17 -321 l0
-321 68 3 67 3 2 314 c2 173 5 316 7 318 2 3 48 5 103 6 l98 2 0 65 0 65 -278
3 -278 2 3 -67z"/>
<path d="M3257 1843 c-3 -4 -48 -125 -102 -268 -53 -143 -116 -312 -140 -375
-23 -63 -40 -119 -35 -123 4 -4 33 -7 65 -5 l58 3 29 78 30 77 173 0 173 0 18
-47 c44 -122 36 -113 102 -113 32 0 61 2 64 5 3 3 -20 72 -50 153 -30 81 -94
253 -142 382 l-87 235 -76 3 c-41 2 -78 -1 -80 -5z m143 -320 c28 -78 49 -147
45 -152 -10 -17 -214 -14 -221 3 -4 11 84 268 102 298 10 17 20 -2 74 -149z"/>
<path d="M4290 1780 c0 -51 4 -70 13 -69 6 1 54 1 105 0 l92 -1 0 -320 0 -320
65 0 65 0 0 320 0 320 99 0 c67 0 102 4 109 13 5 6 9 37 8 67 l-1 55 -277 3
-278 2 0 -70z"/>
<path d="M5464 1836 c-3 -7 -4 -38 -2 -67 l3 -54 108 -3 108 -3 -1 -317 -1
-317 63 0 63 0 3 317 2 317 103 3 102 3 0 65 0 65 -273 3 c-225 2 -273 0 -278
-12z"/>
</g>
</svg>
