<?xml version="1.0" standalone="no"?>
<!DOCTYPE svg PUBLIC "-//W3C//DTD SVG 20010904//EN"
 "http://www.w3.org/TR/2001/REC-SVG-20010904/DTD/svg10.dtd">
<svg version="1.0" xmlns="http://www.w3.org/2000/svg"
 width="512.000000pt" height="512.000000pt" viewBox="0 0 512.000000 512.000000"
 preserveAspectRatio="xMidYMid meet">

<g transform="translate(0.000000,512.000000) scale(0.100000,-0.100000)"
fill="#000000" stroke="none">
<path d="M508 3054 c-3 -5 -10 -25 -16 -44 -6 -19 -31 -101 -57 -182 l-46
-148 -191 -2 -191 -3 151 -115 c84 -63 152 -120 152 -126 0 -6 -25 -92 -55
-190 -30 -98 -53 -179 -51 -181 2 -2 71 49 155 112 l151 116 152 -115 c83 -64
153 -114 155 -112 2 2 -22 87 -53 190 -32 102 -56 187 -53 189 2 2 71 55 154
118 l150 114 -192 3 -192 2 -27 88 c-68 226 -92 294 -96 286z"/>
<path d="M1507 2979 c-14 -46 -41 -132 -59 -191 l-33 -108 -192 -2 -193 -3
150 -114 c83 -62 152 -116 154 -120 3 -4 -21 -91 -53 -194 -32 -103 -56 -187
-54 -187 3 0 65 46 139 103 74 56 143 108 153 115 16 11 36 -2 170 -104 84
-64 154 -114 155 -113 2 2 -16 67 -41 144 -24 77 -50 161 -58 188 l-14 47 154
118 154 117 -192 3 -192 3 -54 177 c-30 97 -57 183 -61 191 -4 8 -17 -20 -33
-70z"/>
<path d="M3550 2959 c-17 -57 -44 -143 -58 -191 l-27 -87 -192 -3 -192 -3 154
-117 154 -118 -14 -47 c-8 -27 -34 -111 -58 -188 -25 -77 -43 -142 -41 -144 1
-1 71 49 155 113 134 102 154 115 170 104 10 -7 79 -59 153 -115 74 -57 136
-103 139 -103 2 0 -22 84 -54 187 -32 103 -56 190 -53 194 2 4 71 58 154 120
l150 114 -193 3 -192 2 -54 178 c-30 97 -58 183 -61 191 -5 9 -20 -27 -40 -90z"/>
<path d="M4578 2972 c-14 -48 -41 -133 -58 -189 l-31 -103 -192 -2 -192 -3
150 -114 c83 -63 152 -116 154 -118 3 -2 -21 -87 -53 -189 -31 -103 -55 -188
-53 -190 2 -2 72 48 155 112 l152 115 151 -116 c84 -63 153 -114 155 -112 2 2
-21 83 -51 181 -30 98 -55 184 -55 190 0 6 68 63 152 126 l151 115 -191 3
-191 2 -46 148 c-26 81 -51 163 -57 182 -6 19 -13 38 -17 42 -3 4 -18 -32 -33
-80z"/>
<path d="M2536 2993 c-10 -32 -36 -115 -58 -185 l-39 -128 -192 -2 -191 -3
152 -115 c83 -63 152 -119 152 -125 0 -5 -25 -91 -55 -189 -30 -99 -54 -181
-52 -183 2 -2 72 49 155 112 l152 116 152 -116 c83 -63 153 -114 155 -112 2 2
-22 84 -52 183 -30 98 -55 184 -55 189 0 6 69 62 152 125 l152 115 -191 3
-192 2 -39 128 c-22 70 -48 153 -58 185 -10 31 -21 57 -24 57 -3 0 -14 -26
-24 -57z"/>
</g>
</svg>
